Yellow Submarine (1968)

The Beatles, Animation, Music, Adventure, Comedy, Fantasy 

Family, Psychedelic, John Lennon, Paul Mccartney, Surrealism 

The Beatles agree to accompany Captain Fred in his Yellow Submarine

 and go to Pepperland to free it from the music hating Blue Meanies. 

 
http://www.imdb.com/title/tt0063823/


Format                           : Matroska
File size                        : 1.40 GiB
Duration                         : 1h 30mn
Overall bit rate                 : 2 229 Kbps

Video
Format/Info                      : AVC/Advanced Video Codec
Codec ID                         : V_MPEG4/ISO/AVC
Nominal bit rate                 : 1 772 Kbps
Width                            : 720 pixels
Height                           : 384 pixels
Display aspect ratio             : 1.656
Frame rate                       : 23.976 fps
Stream size                      : 1.09 GiB (78%)
Writing library                  : x264 core 79

Audio
Format/Info                      : AC-3/Audio Coding 3
Bit rate mode                    : Constant
Bit rate                         : 448 Kbps
Channel(s)                       : 6 channels
Channel positions                : Front: L C R, Surround: L R, LFE
Sampling rate                    : 48.0 KHz
Stream size                      : 288 MiB (20%)
Language                         : English

Subtitles: 

English, French, Spanish, Portuguese, Japanese, Bulgarian, Croatian

Czech, Danish, Dutch, Hungarian, Indonesian, Polish, Romanian, Serbian
 
http://i.imagehost.org/0237/Yellow_Submarine_1968_x264_multisub1.jpg

 
http://f.imagehost.org/0462/Yellow_Submarine_1968_x264_multisub2.jpg

 
http://f.imagehost.org/0542/Yellow_Submarine_1968_x264_multisub3.jpg
